Coordinates
version=1
nRows=11
nColumns=40
inDegrees=yes

Units are S.I. units (second, meters, Newtons, ...)
If the header above contains a line with 'inDegrees', this indicates whether rotational values are in degrees (yes) or radians (no).

endheader
time	pelvis_tilt	pelvis_list	pelvis_rotation	pelvis_tx	pelvis_ty	pelvis_tz	hip_flexion_r	hip_adduction_r	hip_rotation_r	knee_angle_r	knee_angle_r_beta	ankle_angle_r	subtalar_angle_r	mtp_angle_r	hip_flexion_l	hip_adduction_l	hip_rotation_l	knee_angle_l	knee_angle_l_beta	ankle_angle_l	subtalar_angle_l	mtp_angle_l	lumbar_extension	lumbar_bending	lumbar_rotation	arm_flex_r	arm_add_r	arm_rot_r	elbow_flex_r	pro_sup_r	wrist_flex_r	wrist_dev_r	arm_flex_l	arm_add_l	arm_rot_l	elbow_flex_l	pro_sup_l	wrist_flex_l	wrist_dev_l
      0.00500000	     -2.06420878	     -0.87537292	      3.17205488	      0.25529350	      0.91431959	     -1.21021483	      1.57248971	    -14.92539367	    -33.40367276	      9.50591518	      0.16590952	     -1.52841412	     -5.28742508	      0.00000000	      3.74978269	    -17.19507731	    -37.42818257	      6.07146107	      0.10596699	     -1.16447809	     18.29852561	      0.00000000	     -6.68648537	      0.49338673	     -1.35607647	     42.74423736	    -16.07912106	     42.74423736	     75.79174499	     44.61034195	      0.00000000	      0.00000000	     42.74423736	    -16.07912106	     42.74423736	     75.79174499	     44.61034195	      0.00000000	      0.00000000
      0.01000000	     -2.07247323	     -0.88721537	      3.17735948	      0.25523845	      0.91431594	     -1.21023823	      1.59108933	    -14.91121535	    -33.37244443	      9.50549036	      0.16590210	     -1.57831291	     -5.36736239	      0.00000000	      3.76172574	    -17.20125917	    -37.38798346	      6.06087652	      0.10578225	     -1.16767879	     18.25325657	      0.00000000	     -6.68999863	      0.52674848	     -1.30691101	     42.75060475	    -16.07226492	     42.75060475	     75.77800279	     44.63505323	      0.00000000	      0.00000000	     42.75060475	    -16.07226492	     42.75060475	     75.77800279	     44.63505323	      0.00000000	      0.00000000
      0.01500000	     -2.08366494	     -0.89925798	      3.16794772	      0.25516715	      0.91429698	     -1.21021013	      1.63908413	    -14.91311053	    -33.37016748	      9.56134970	      0.16687703	     -1.55602211	     -5.37555478	      0.00000000	      3.79106998	    -17.23009392	    -37.41639729	      6.10177421	      0.10649605	     -1.14714775	     18.28653682	      0.00000000	     -6.69434456	      0.57058944	     -1.20029964	     42.92605478	    -15.95034180	     42.92605478	     75.63989625	     44.75380532	      0.00000000	      0.00000000	     42.92605478	    -15.95034180	     42.92605478	     75.63989625	     44.75380532	      0.00000000	      0.00000000
      0.02000000	     -2.11540508	     -0.87446383	      3.15812100	      0.25510527	      0.91424992	     -1.21019865	      1.71252042	    -14.96267234	    -33.35024013	      9.62918442	      0.16806097	     -1.54692580	     -5.40058386	      0.00000000	      3.83176116	    -17.20949105	    -37.45601298	      6.11973396	      0.10680951	     -1.15149236	     18.31783849	      0.00000000	     -6.68419255	      0.55113915	     -1.16298374	     43.13359556	    -15.81585665	     43.13359556	     75.50682521	     44.83664449	      0.00000000	      0.00000000	     43.13359556	    -15.81585665	     43.13359556	     75.50682521	     44.83664449	      0.00000000	      0.00000000
      0.02500000	     -2.09154601	     -0.89185846	      3.18479291	      0.25493911	      0.91427490	     -1.21023210	      1.72434405	    -14.97213190	    -33.42446032	      9.70613215	      0.16940396	     -1.50819383	     -5.35738969	      0.00000000	      3.83410910	    -17.22344396	    -37.35886844	      6.12838412	      0.10696048	     -1.13527112	     18.22174783	      0.00000000	     -6.75263918	      0.54635817	     -1.25518124	     43.18722754	    -15.78148117	     43.18722754	     75.47365429	     44.85474763	      0.00000000	      0.00000000	     43.18722754	    -15.78148117	     43.18722754	     75.47365429	     44.85474763	      0.00000000	      0.00000000
      0.03000000	     -2.14747308	     -0.87940592	      3.15170688	      0.25487444	      0.91420469	     -1.21020218	      1.84766421	    -15.01115344	    -33.35487353	      9.80195760	      0.17107643	     -1.54185335	     -5.47185153	      0.00000000	      3.89425139	    -17.22123566	    -37.42987562	      6.15258055	      0.10738279	     -1.14983618	     18.28025399	      0.00000000	     -6.71609195	      0.51942159	     -1.28122415	     43.21171899	    -15.76455795	     43.21171899	     75.45522922	     44.86666463	      0.00000000	      0.00000000	     43.21171899	    -15.76455795	     43.21171899	     75.45522922	     44.86666463	      0.00000000	      0.00000000
      0.03500000	     -2.16224735	     -0.87496708	      3.16487357	      0.25474472	      0.91418535	     -1.21022742	      1.90367109	    -15.04010709	    -33.36211519	      9.87653487	      0.17237805	     -1.52956191	     -5.49758169	      0.00000000	      3.93238204	    -17.21793008	    -37.39974504	      6.16897090	      0.10766885	     -1.13307468	     18.24689802	      0.00000000	     -6.73831763	      0.54069722	     -1.22879665	     43.23567801	    -15.74695920	     43.23567801	     75.43433966	     44.88181367	      0.00000000	      0.00000000	     43.23567801	    -15.74695920	     43.23567801	     75.43433966	     44.88181367	      0.00000000	      0.00000000
      0.04000000	     -2.14806530	     -0.86831068	      3.14424432	      0.25460791	      0.91421545	     -1.21017076	      1.92757720	    -15.04718516	    -33.28848109	      9.90717303	      0.17291279	     -1.52292980	     -5.54270881	      0.00000000	      3.90220273	    -17.19598435	    -37.33055794	      6.12538342	      0.10690811	     -1.16945605	     18.12526906	      0.00000000	     -6.79407845	      0.50646803	     -1.25770946	     43.24621628	    -15.73855396	     43.24621628	     75.42341337	     44.89042408	      0.00000000	      0.00000000	     43.24621628	    -15.73855396	     43.24621628	     75.42341337	     44.89042408	      0.00000000	      0.00000000
      0.04500000	     -2.29694186	     -0.90228736	      3.16578215	      0.25451688	      0.91396047	     -1.21023319	      2.20808806	    -15.11801130	    -33.44774112	     10.19887990	      0.17800403	     -1.43740649	     -5.53071826	      0.00000000	      4.10267721	    -17.24037845	    -37.31260934	      6.17632403	      0.10779719	     -1.09444485	     18.17908860	      0.00000000	     -6.65241432	      0.56762169	     -1.24515832	     43.26054203	    -15.72845103	     43.26054203	     75.41213325	     44.89763616	      0.00000000	      0.00000000	     43.26054203	    -15.72845103	     43.26054203	     75.41213325	     44.89763616	      0.00000000	      0.00000000
      0.05000000	     -2.26437523	     -0.87036405	      3.12997899	      0.25432292	      0.91402750	     -1.21019070	      2.20248038	    -15.13169617	    -33.25651143	     10.16775595	      0.17746082	     -1.53083676	     -5.67425805	      0.00000000	      4.09588532	    -17.24162185	    -37.43479995	      6.26743962	      0.10938746	     -1.06448722	     18.25430441	      0.00000000	     -6.74514344	      0.51828275	     -1.25787247	     43.31099103	    -15.69378259	     43.31099103	     75.37650842	     44.91590984	      0.00000000	      0.00000000	     43.31099103	    -15.69378259	     43.31099103	     75.37650842	     44.91590984	      0.00000000	      0.00000000
      0.05500000	     -2.32661831	     -0.88155209	      3.17488747	      0.25425264	      0.91389531	     -1.21028625	      2.35125083	    -15.21044216	    -33.43646776	     10.39777502	      0.18147541	     -1.40798230	     -5.57420125	      0.00000000	      4.22532719	    -17.27655050	    -37.46331906	      6.36480569	      0.11108682	     -1.02860035	     18.29946639	      0.00000000	     -6.66503533	      0.55591857	     -1.25776225	     43.32228151	    -15.68590293	     43.32228151	     75.36799540	     44.92075390	      0.00000000	      0.00000000	     43.32228151	    -15.68590293	     43.32228151	     75.36799540	     44.92075390	      0.00000000	      0.00000000
